# xmcd CD database file
#
# Track frame offsets:
#	150
#	43209
#	64594
#	108952
#	145085
#	172262
#	198075
#	226787
#
# Disc length: 3240 seconds
#
# Revision: 0
# Processed by: cddbd v1.5.2PL0 Copyright (c) Steve Scherf et al.
# Submitted via: CDex 1.51
#
DISCID=680ca608
DTITLE=JAROMÍR HONZÁK QUARTET - A Question To All Your Answers
DYEAR=2007
DGENRE=Jazz
TTITLE0=Wiener´s Wings
TTITLE1=The Rain´s Message
TTITLE2=Great Adventure Of The Last Leaf
TTITLE3=Now I Know
TTITLE4=A Question To All Your Answers
TTITLE5=Chance´s Choice
TTITLE6=You In That Picture
TTITLE7=Timeless Piece
EXTD=YEAR: 2007
EXTT0=
EXTT1=
EXTT2=
EXTT3=
EXTT4=
EXTT5=
EXTT6=
EXTT7=
PLAYORDER=
